<svg id="Ebene_1" data-name="Ebene 1" xmlns="http://www.w3.org/2000/svg" viewBox="0 0 590.83 229.29"><defs><style>.cls-1{fill:#8a9199;}.cls-2{fill:#662483;fill-rule:evenodd;}.cls-3{fill:#878787;}.cls-4{fill:none;stroke:#662483;stroke-linecap:round;stroke-linejoin:round;stroke-width:5.86px;}</style></defs><path class="cls-1" d="M177.45,410.23H174.5a1.28,1.28,0,0,1-.82-.26,1.38,1.38,0,0,1-.47-.64l-2.28-6H159.56l-2.28,6a1.51,1.51,0,0,1-.47.62,1.3,1.3,0,0,1-.83.28H153l10.27-25.8h3.86Zm-7.56-9.61-3.83-10a22.26,22.26,0,0,1-.83-2.59c-.13.52-.26,1-.4,1.44s-.27.84-.4,1.19l-3.81,10Z" transform="translate(-52.48 -181.25)"/><path class="cls-1" d="M205.42,388.63a1.36,1.36,0,0,1-.38.45.8.8,0,0,1-.5.15,1.32,1.32,0,0,1-.74-.3,11.84,11.84,0,0,0-1-.66,7.88,7.88,0,0,0-1.48-.67,6.37,6.37,0,0,0-2.07-.3,6,6,0,0,0-2,.3,4.21,4.21,0,0,0-1.43.81,3.19,3.19,0,0,0-.87,1.2,3.72,3.72,0,0,0-.3,1.5,2.76,2.76,0,0,0,.53,1.73,4.58,4.58,0,0,0,1.39,1.16,10.71,10.71,0,0,0,2,.85l2.25.74c.76.26,1.51.56,2.24.89a8,8,0,0,1,2,1.27,5.82,5.82,0,0,1,1.39,1.87,6.13,6.13,0,0,1,.53,2.7,8.66,8.66,0,0,1-.58,3.2,7.57,7.57,0,0,1-1.7,2.6,7.79,7.79,0,0,1-2.74,1.76,10.12,10.12,0,0,1-3.69.63,11.94,11.94,0,0,1-2.41-.24,12.09,12.09,0,0,1-2.21-.68,11.46,11.46,0,0,1-1.95-1.06,9.89,9.89,0,0,1-1.62-1.39l1.09-1.84a1.44,1.44,0,0,1,.39-.35.9.9,0,0,1,.51-.15,1.45,1.45,0,0,1,.87.4c.33.26.74.55,1.22.87a9.2,9.2,0,0,0,1.75.87,6.88,6.88,0,0,0,2.47.39,6.66,6.66,0,0,0,2.12-.31,4.4,4.4,0,0,0,1.57-.9,4,4,0,0,0,1-1.41,4.7,4.7,0,0,0,.34-1.83,3,3,0,0,0-.52-1.85,4.25,4.25,0,0,0-1.38-1.2,10,10,0,0,0-2-.83l-2.25-.71c-.77-.25-1.51-.53-2.24-.85a7.42,7.42,0,0,1-2-1.27,5.66,5.66,0,0,1-1.39-2,7.27,7.27,0,0,1-.52-2.9,6.9,6.9,0,0,1,2.11-5,8,8,0,0,1,2.55-1.6,9.24,9.24,0,0,1,3.45-.6,11.18,11.18,0,0,1,4,.69,9.18,9.18,0,0,1,3.17,2Z" transform="translate(-52.48 -181.25)"/><path class="cls-1" d="M223.47,407.15a7,7,0,0,0,2.77-.52,5.77,5.77,0,0,0,2.07-1.46,6.56,6.56,0,0,0,1.29-2.25,8.74,8.74,0,0,0,.45-2.88V384.43h3.81V400a11.86,11.86,0,0,1-.72,4.19,9.34,9.34,0,0,1-5.34,5.51,12.26,12.26,0,0,1-8.66,0,9.29,9.29,0,0,1-5.33-5.51,11.86,11.86,0,0,1-.72-4.19V384.43h3.83V400a8.91,8.91,0,0,0,.44,2.9,6.38,6.38,0,0,0,1.28,2.25,5.6,5.6,0,0,0,2.07,1.46A6.9,6.9,0,0,0,223.47,407.15Z" transform="translate(-52.48 -181.25)"/><path class="cls-1" d="M262.8,384.43v25.8h-1.94a1.54,1.54,0,0,1-.75-.17,2,2,0,0,1-.6-.52L244.94,390.7l.06.95c0,.31,0,.61,0,.88v17.7h-3.36v-25.8h2a1.83,1.83,0,0,1,.75.12,1.56,1.56,0,0,1,.56.53l14.6,18.86c0-.35-.06-.69-.08-1s0-.63,0-.92V384.43Z" transform="translate(-52.48 -181.25)"/><path class="cls-1" d="M293.44,397.33a14.48,14.48,0,0,1-.92,5.26,11.54,11.54,0,0,1-6.66,6.7,13.91,13.91,0,0,1-5.23.94h-9.7v-25.8h9.7a14.11,14.11,0,0,1,5.23.93,11.59,11.59,0,0,1,6.66,6.71A14.56,14.56,0,0,1,293.44,397.33Zm-3.91,0a12.51,12.51,0,0,0-.63-4.12,8.7,8.7,0,0,0-1.79-3.09,7.66,7.66,0,0,0-2.8-1.94,9.81,9.81,0,0,0-3.68-.66h-5.85v19.62h5.85a9.61,9.61,0,0,0,3.68-.67,7.64,7.64,0,0,0,2.8-1.93,8.74,8.74,0,0,0,1.79-3.08A12.57,12.57,0,0,0,289.53,397.33Z" transform="translate(-52.48 -181.25)"/><path class="cls-1" d="M331.9,397.67v10.06a14.65,14.65,0,0,1-4.16,2.09,16.13,16.13,0,0,1-4.82.69,15.58,15.58,0,0,1-5.65-1,12.41,12.41,0,0,1-4.3-2.71,11.78,11.78,0,0,1-2.74-4.17,14.32,14.32,0,0,1-1-5.33,15.11,15.11,0,0,1,.92-5.36,11.67,11.67,0,0,1,2.65-4.17,12,12,0,0,1,4.18-2.7,15,15,0,0,1,5.51-1,16,16,0,0,1,2.86.24,12.72,12.72,0,0,1,2.45.66,12.05,12.05,0,0,1,2.1,1,12.5,12.5,0,0,1,1.78,1.36l-1.09,1.72a1.12,1.12,0,0,1-.67.53,1.14,1.14,0,0,1-.89-.2c-.32-.18-.66-.39-1-.63a8,8,0,0,0-1.34-.67,12.73,12.73,0,0,0-1.83-.52,12.53,12.53,0,0,0-2.46-.21,10.17,10.17,0,0,0-3.83.69,8.18,8.18,0,0,0-2.91,2,9.16,9.16,0,0,0-1.85,3.12,12.23,12.23,0,0,0-.64,4.09,12.51,12.51,0,0,0,.68,4.25,9.07,9.07,0,0,0,1.93,3.18,8.22,8.22,0,0,0,3,2,11,11,0,0,0,4,.68,13.46,13.46,0,0,0,1.61-.09,12.07,12.07,0,0,0,1.43-.28,9.31,9.31,0,0,0,1.32-.45c.43-.18.85-.38,1.27-.6v-5.4h-3.81a.8.8,0,0,1-.59-.22.74.74,0,0,1-.22-.54v-2.17Z" transform="translate(-52.48 -181.25)"/><path class="cls-1" d="M358.17,410.23h-3.42a1.59,1.59,0,0,1-1.49-.81l-6.37-8.95a2,2,0,0,0-.67-.64,2.51,2.51,0,0,0-1.08-.18h-2.49v10.58h-3.83v-25.8h7.44a15.94,15.94,0,0,1,4.3.51,8.3,8.3,0,0,1,3,1.46,5.64,5.64,0,0,1,1.74,2.27,7.5,7.5,0,0,1,.57,3,7.76,7.76,0,0,1-.41,2.53,6.64,6.64,0,0,1-1.22,2.13,7.74,7.74,0,0,1-1.94,1.63,9.82,9.82,0,0,1-2.61,1,4,4,0,0,1,1.24,1.2Zm-12-13.37a8.55,8.55,0,0,0,2.6-.36,5.31,5.31,0,0,0,1.87-1,4.1,4.1,0,0,0,1.14-1.57,5.16,5.16,0,0,0,.37-2,4,4,0,0,0-1.46-3.36,7.15,7.15,0,0,0-4.39-1.13h-3.61v9.43Z" transform="translate(-52.48 -181.25)"/><path class="cls-1" d="M387,397.33a14.66,14.66,0,0,1-.93,5.31,12.1,12.1,0,0,1-2.61,4.16,11.83,11.83,0,0,1-4,2.73,14.56,14.56,0,0,1-10.45,0,11.73,11.73,0,0,1-4-2.73,12.25,12.25,0,0,1-2.61-4.16,15.44,15.44,0,0,1,0-10.61,12.34,12.34,0,0,1,2.61-4.18,11.73,11.73,0,0,1,4-2.73,14.42,14.42,0,0,1,10.45,0,11.83,11.83,0,0,1,4,2.73,12.19,12.19,0,0,1,2.61,4.18A14.68,14.68,0,0,1,387,397.33Zm-3.92,0a12.61,12.61,0,0,0-.63-4.13,8.77,8.77,0,0,0-1.78-3.11,7.87,7.87,0,0,0-2.81-2,10.24,10.24,0,0,0-7.34,0,7.91,7.91,0,0,0-2.82,2,8.79,8.79,0,0,0-1.79,3.11,13.89,13.89,0,0,0,0,8.27,8.92,8.92,0,0,0,1.79,3.1,7.76,7.76,0,0,0,2.82,1.95,10.39,10.39,0,0,0,7.34,0,7.73,7.73,0,0,0,2.81-1.95,8.91,8.91,0,0,0,1.78-3.1A12.68,12.68,0,0,0,383.1,397.33Z" transform="translate(-52.48 -181.25)"/><path class="cls-1" d="M403.63,407.15a7,7,0,0,0,2.77-.52,5.77,5.77,0,0,0,2.07-1.46,6.56,6.56,0,0,0,1.29-2.25,8.74,8.74,0,0,0,.45-2.88V384.43H414V400a11.86,11.86,0,0,1-.72,4.19,9.52,9.52,0,0,1-2.07,3.32,9.4,9.4,0,0,1-3.27,2.19,12.23,12.23,0,0,1-8.65,0,9.4,9.4,0,0,1-3.27-2.19,9.52,9.52,0,0,1-2.07-3.32,11.86,11.86,0,0,1-.72-4.19V384.43h3.83V400a8.91,8.91,0,0,0,.44,2.9,6.38,6.38,0,0,0,1.28,2.25,5.68,5.68,0,0,0,2.07,1.46A6.93,6.93,0,0,0,403.63,407.15Z" transform="translate(-52.48 -181.25)"/><path class="cls-1" d="M429.65,384.43A14.57,14.57,0,0,1,434,385a8.43,8.43,0,0,1,3,1.63,6.4,6.4,0,0,1,1.79,2.54,9,9,0,0,1,.59,3.31,8.59,8.59,0,0,1-.63,3.33,7.2,7.2,0,0,1-1.85,2.61,8.49,8.49,0,0,1-3.05,1.7,13.41,13.41,0,0,1-4.19.6h-4v9.51h-3.83v-25.8Zm0,13.28a8,8,0,0,0,2.56-.38,5.18,5.18,0,0,0,1.85-1.07,4.48,4.48,0,0,0,1.12-1.65,5.81,5.81,0,0,0,.38-2.13,4.77,4.77,0,0,0-1.47-3.7,6.36,6.36,0,0,0-4.44-1.35h-4v10.28Z" transform="translate(-52.48 -181.25)"/><path class="cls-1" d="M473.21,404.69a.76.76,0,0,1,.56.26l1.51,1.65a10.84,10.84,0,0,1-3.86,2.89,13.29,13.29,0,0,1-5.47,1,12.7,12.7,0,0,1-5.07-1,11,11,0,0,1-3.88-2.71,12.09,12.09,0,0,1-2.49-4.17,15.4,15.4,0,0,1-.88-5.33,15,15,0,0,1,.92-5.34,12.38,12.38,0,0,1,2.6-4.16,11.64,11.64,0,0,1,4-2.72,13.33,13.33,0,0,1,5.14-1,12.15,12.15,0,0,1,8.61,3.29l-1.26,1.78a1.05,1.05,0,0,1-.31.32.84.84,0,0,1-.5.13,1.48,1.48,0,0,1-.8-.34,10.18,10.18,0,0,0-1.2-.77,9.83,9.83,0,0,0-1.84-.76,9.23,9.23,0,0,0-2.73-.34,8.94,8.94,0,0,0-3.52.67,7.81,7.81,0,0,0-2.76,1.94,9,9,0,0,0-1.8,3.11,12.79,12.79,0,0,0-.64,4.16,12.26,12.26,0,0,0,.67,4.18,9,9,0,0,0,1.83,3.11,7.79,7.79,0,0,0,2.75,1.94,8.75,8.75,0,0,0,3.41.67,13.49,13.49,0,0,0,2-.14,8.64,8.64,0,0,0,1.63-.4,7.09,7.09,0,0,0,1.41-.69,9.9,9.9,0,0,0,1.31-1,2.11,2.11,0,0,1,.31-.21A.81.81,0,0,1,473.21,404.69Z" transform="translate(-52.48 -181.25)"/><path class="cls-1" d="M504.47,397.33a14.66,14.66,0,0,1-.93,5.31,12.25,12.25,0,0,1-2.61,4.16,11.83,11.83,0,0,1-4,2.73,14.56,14.56,0,0,1-10.45,0,11.73,11.73,0,0,1-4-2.73,12.43,12.43,0,0,1-2.62-4.16,15.6,15.6,0,0,1,0-10.61,12.52,12.52,0,0,1,2.62-4.18,11.73,11.73,0,0,1,4-2.73,14.42,14.42,0,0,1,10.45,0,11.83,11.83,0,0,1,4,2.73,12.34,12.34,0,0,1,2.61,4.18A14.68,14.68,0,0,1,504.47,397.33Zm-3.92,0a12.61,12.61,0,0,0-.63-4.13,8.64,8.64,0,0,0-1.79-3.11,7.75,7.75,0,0,0-2.8-2,10.27,10.27,0,0,0-7.35,0,8,8,0,0,0-2.81,2,8.64,8.64,0,0,0-1.79,3.11,13.89,13.89,0,0,0,0,8.27,8.77,8.77,0,0,0,1.79,3.1,7.81,7.81,0,0,0,2.81,1.95,10.41,10.41,0,0,0,7.35,0,7.61,7.61,0,0,0,2.8-1.95,8.77,8.77,0,0,0,1.79-3.1A12.68,12.68,0,0,0,500.55,397.33Z" transform="translate(-52.48 -181.25)"/><path class="cls-1" d="M538.15,384.43v25.8h-3.34V391.87c0-.28,0-.57,0-.88s0-.63.07-.95l-8.59,15.75a1.46,1.46,0,0,1-1.38.88h-.54a1.44,1.44,0,0,1-1.37-.88L514.28,390a18.17,18.17,0,0,1,.1,1.89v18.36H511v-25.8h2.84a2.27,2.27,0,0,1,.78.1,1.08,1.08,0,0,1,.53.55l8.63,15.45c.16.31.32.64.46,1s.28.7.42,1.05a16.22,16.22,0,0,1,.88-2.05L534,385.08a1,1,0,0,1,.51-.55,2.3,2.3,0,0,1,.78-.1Z" transform="translate(-52.48 -181.25)"/><path class="cls-1" d="M554.1,384.43a14.57,14.57,0,0,1,4.31.57,8.48,8.48,0,0,1,3,1.63,6.5,6.5,0,0,1,1.79,2.54,9.24,9.24,0,0,1,.58,3.31,8.59,8.59,0,0,1-.63,3.33,7.08,7.08,0,0,1-1.85,2.61,8.45,8.45,0,0,1-3,1.7,13.47,13.47,0,0,1-4.2.6h-4v9.51h-3.82v-25.8Zm0,13.28a8,8,0,0,0,2.56-.38,5.09,5.09,0,0,0,1.85-1.07,4.36,4.36,0,0,0,1.12-1.65,5.61,5.61,0,0,0,.38-2.13,4.8,4.8,0,0,0-1.46-3.7,6.39,6.39,0,0,0-4.45-1.35h-4v10.28Z" transform="translate(-52.48 -181.25)"/><path class="cls-1" d="M589.29,410.23h-2.94a1.31,1.31,0,0,1-.83-.26,1.38,1.38,0,0,1-.47-.64l-2.28-6H571.4l-2.28,6a1.43,1.43,0,0,1-.47.62,1.29,1.29,0,0,1-.82.28h-3l10.28-25.8H579Zm-7.56-9.61-3.83-10a22.46,22.46,0,0,1-.82-2.59c-.13.52-.27,1-.41,1.44s-.27.84-.4,1.19l-3.81,10Z" transform="translate(-52.48 -181.25)"/><path class="cls-1" d="M615.4,384.43v25.8h-1.94a1.54,1.54,0,0,1-.75-.17,2,2,0,0,1-.6-.52L597.54,390.7l.06.95c0,.31,0,.61,0,.88v17.7h-3.36v-25.8h2a1.83,1.83,0,0,1,.75.12,1.56,1.56,0,0,1,.56.53l14.6,18.86c0-.35-.06-.69-.08-1s0-.63,0-.92V384.43Z" transform="translate(-52.48 -181.25)"/><path class="cls-1" d="M633.57,400v10.21h-3.8V400l-9.45-15.59h3.36a1.25,1.25,0,0,1,.8.24,1.81,1.81,0,0,1,.51.64l5.6,9.65c.23.44.44.86.62,1.25s.35.79.5,1.17q.19-.57.45-1.17c.18-.39.38-.81.61-1.25l5.58-9.65a2.16,2.16,0,0,1,.5-.6,1.13,1.13,0,0,1,.8-.28H643Z" transform="translate(-52.48 -181.25)"/><path class="cls-2" d="M91.47,253.81c13.26,7.72,63.93,5,71.19,18.76,6.72,5.71,12.28,12.59,18.44,18.88,8.94,6.19,23.47,6.82,32.38,13.05,6.35,3.65,7.15,14.81,1.35,18.89,23.68-5.4,48.44-1.48,71.86-7.14a6.52,6.52,0,0,0,3.81-3.75c.57-1.69-.28-5.91-3-6.33-14.27-.8-27,4.45-40.32,8.6,11.82-5.58,24.91-11.86,41.93-10.75,5.34,3,3.66,12.15-.29,13.65,4.51,5.86.46,13.23-2,15.32-12,8.78-55.63,18.29-60,19-6.29,1.06-12-.31-18,.45-9.8,1.25-25.47,1.38-37.18-.74-4-.72-22.6-9.46-26.33-11.14-43.85-19.66-77.13-41.6-92.84-62.85,22.33,26.69,80.37,55.31,118.39,70.76,8.62.31,19.79,3.35,26,2,11.08-2.4,26.53,1.63,34.5-2.3,9.49-4.67,51.68-8.17,56.94-22.38,2.68-7.26-8.25-4.46-17.62-3.62S232.1,322,225,323.77c-4.69,1.17-15.73,2.06-18,2.94-14.16,1.44-25.94-1.24-35.39-6C161.42,306.76,139,303.76,125.32,291c16.13,7.91,34.22,15,48.33,28.13,7.19,3.69,42.65,11.5,42.56-4.12a10.28,10.28,0,0,0-3.17-7.5c-3.65-2.68-11.29-5.79-16.77-7.25-17.9-2.72-30.4-23-34-25.14-8.78-14.25-59.43-14.46-77.61-20.86" transform="translate(-52.48 -181.25)"/><path class="cls-3" d="M240.81,294.86a30.93,30.93,0,0,1-31.16-30.93V214.72a5.62,5.62,0,0,1,5.55-5.55,5.7,5.7,0,0,1,5.54,5.55v25.49a31.09,31.09,0,0,1,51,23.72A30.73,30.73,0,0,1,240.81,294.86Zm0-51.93c-11.45,0-20.07,9.79-20.07,21s8.62,20.78,20.07,20.78,20.06-9.56,20.06-20.78S252.26,242.93,240.81,242.93Z" transform="translate(-52.48 -181.25)"/><path class="cls-3" d="M287.31,227.11a6.2,6.2,0,0,1-6.14-6.25,6.1,6.1,0,0,1,6.14-6.14,6.19,6.19,0,0,1,6.25,6.14A6.29,6.29,0,0,1,287.31,227.11Zm0,66.21a5.62,5.62,0,0,1-5.55-5.54V240a5.7,5.7,0,0,1,5.55-5.55,5.62,5.62,0,0,1,5.55,5.55v47.8A5.54,5.54,0,0,1,287.31,293.32Z" transform="translate(-52.48 -181.25)"/><path class="cls-3" d="M352.1,293.32a5.61,5.61,0,0,1-5.54-5.54V261.34c0-9.92-3.19-18.41-14.64-18.41-10.86,0-15.58,8.49-15.58,18.29v26.56a5.49,5.49,0,1,1-11,0V238.09a5.25,5.25,0,0,1,5.2-5.2c2.71,0,5.78,2.25,5.78,5.2v2.71a20.85,20.85,0,0,1,16.76-7.91c15.7,0,24.55,9.92,24.55,26.8v28.09A5.62,5.62,0,0,1,352.1,293.32Z" transform="translate(-52.48 -181.25)"/><path class="cls-3" d="M397.07,316.46c-9.21,0-18.77-3.31-24.31-11a5.34,5.34,0,0,1,3.77-9.21c4.72,0,7.32,10.15,20.66,10.15,13.1,0,20.3-6.37,20.65-19.71-5.78,5.08-12.63,8.27-20.54,8.27a31.11,31.11,0,0,1-31.39-31.16c0-17.47,14.28-30.93,31.51-30.93s31.51,13.7,31.51,31v21.49C428.93,305.24,416.66,316.46,397.07,316.46Zm.23-73.41c-11.56,0-20.3,9.32-20.3,20.88,0,11.22,8.86,20.78,20.19,20.78a20.83,20.83,0,0,0,20.65-20.66C417.84,252.13,409.34,243.05,397.3,243.05Z" transform="translate(-52.48 -181.25)"/><path class="cls-3" d="M468.92,294.86a31.52,31.52,0,0,1-31.73-31.4c0-17.35,14.62-30.57,31.73-30.57s31.75,13.22,31.75,30.81S486.16,294.86,468.92,294.86Zm0-51.93a20.89,20.89,0,0,0,0,41.78,20.93,20.93,0,0,0,20.78-21A20.65,20.65,0,0,0,468.92,242.93Z" transform="translate(-52.48 -181.25)"/><path class="cls-3" d="M515.66,293.44a5.62,5.62,0,0,1-5.55-5.55v-73a5.62,5.62,0,0,1,5.55-5.55,5.7,5.7,0,0,1,5.55,5.55v73A5.7,5.7,0,0,1,515.66,293.44Z" transform="translate(-52.48 -181.25)"/><path class="cls-3" d="M561.81,294.86a31,31,0,1,1,0-62,30.46,30.46,0,0,1,20.06,7.32V214.72a5.62,5.62,0,0,1,5.55-5.55,5.5,5.5,0,0,1,5.31,5.55v49.1A30.83,30.83,0,0,1,561.81,294.86Zm0-51.93c-11.45,0-20.07,9.67-20.07,20.89s8.62,20.89,20.07,20.89,20.06-9.68,20.06-20.89S573.25,242.93,561.81,242.93Z" transform="translate(-52.48 -181.25)"/><path class="cls-4" d="M156,247.43V200.82c0-9.19,7.11-16.64,15.89-16.64H624.49c8.77,0,15.89,7.45,15.89,16.64V318.35c0,9.19-7.12,16.64-15.89,16.64H305.82" transform="translate(-52.48 -181.25)"/><path class="cls-4" d="M156,247.43V200.82c0-9.19,7.11-16.64,15.89-16.64H624.49c8.77,0,15.89,7.45,15.89,16.64V318.35c0,9.19-7.12,16.64-15.89,16.64H305.82" transform="translate(-52.48 -181.25)"/></svg>